<svg width="63" height="64" viewBox="0 0 63 64" fill="none" xmlns="http://www.w3.org/2000/svg">
<path d="M48.5986 23.112C33.1689 19.7292 45.8174 -1.66921 24.6768 0.104231C3.53614 1.87767 -16.5107 50.5574 21.0205 61.9558C58.5518 73.3542 77.8955 29.5339 48.5986 23.112Z" fill="#FDB03C"/>
<path d="M34.1484 57.5313C34.039 57.5313 33.9218 57.5078 33.8203 57.4532L17.789 49.0547C17.7073 49.0123 17.6348 48.9541 17.5756 48.8836C17.5165 48.8131 17.4718 48.7316 17.4442 48.6437C17.4166 48.5559 17.4067 48.4635 17.4149 48.3718C17.4231 48.2801 17.4494 48.1909 17.4921 48.1094L33.3281 17.8672C33.3875 17.7531 33.4773 17.6577 33.5876 17.5915C33.698 17.5253 33.8244 17.4909 33.9531 17.4922C34.0624 17.4922 34.1796 17.5157 34.2812 17.5703L50.3124 25.9688C50.6562 26.1485 50.789 26.5703 50.6093 26.9141L34.7656 57.1563C34.7068 57.2692 34.6182 57.3639 34.5093 57.43C34.4005 57.4961 34.2757 57.5311 34.1484 57.5313Z" fill="#FDB03C"/>
<path d="M33.953 18.1953L49.9843 26.5937L34.1483 56.8281L18.1171 48.4375L33.953 18.1953ZM33.953 16.7969C33.8124 16.7969 33.6718 16.8203 33.539 16.8594C33.1874 16.9688 32.8905 17.2188 32.7186 17.5469L16.8749 47.7891C16.7894 47.9521 16.7369 48.1304 16.7204 48.3138C16.704 48.4972 16.7239 48.682 16.7791 48.8577C16.8343 49.0334 16.9236 49.1964 17.0419 49.3375C17.1602 49.4785 17.3053 49.5948 17.4686 49.6797L33.4999 58.0781C33.703 58.1875 33.9218 58.2344 34.1483 58.2344C34.289 58.2344 34.4296 58.2109 34.5624 58.1719C34.914 58.0625 35.2108 57.8125 35.3827 57.4844L51.2265 27.2344C51.3971 26.9059 51.4305 26.5231 51.3192 26.1701C51.2078 25.8171 50.9609 25.5227 50.6327 25.3516L34.6015 16.9531C34.4061 16.8516 34.1796 16.7969 33.953 16.7969Z" fill="#151B28"/>
<path d="M34.0625 57.2734C33.9844 57.2734 33.9063 57.2578 33.8359 57.2344L13.9922 50.4375C13.905 50.4078 13.8245 50.3611 13.7553 50.3003C13.6861 50.2394 13.6296 50.1655 13.589 50.0828C13.5483 50.0001 13.5244 49.9102 13.5185 49.8183C13.5126 49.7263 13.5249 49.6341 13.5547 49.5469L26.375 12.1094C26.4766 11.8203 26.7422 11.6328 27.0391 11.6328C27.1172 11.6328 27.1875 11.6484 27.2656 11.6719L47.1094 18.4687C47.2813 18.5312 47.4297 18.6562 47.5078 18.8203C47.5859 18.9844 47.6016 19.1797 47.5391 19.3516L34.7266 56.7969C34.6641 56.9688 34.5391 57.1172 34.375 57.1953C34.2735 57.25 34.1719 57.2734 34.0625 57.2734Z" fill="white"/>
<path d="M27.0468 12.3437L46.8905 19.1406L34.0624 56.5703L14.2187 49.7734L27.0468 12.3437ZM27.0468 10.9453C26.8359 10.9453 26.6249 10.9922 26.4296 11.0859C26.0961 11.2503 25.8406 11.5394 25.7187 11.8906L12.8984 49.3203C12.6484 50.0547 13.039 50.8438 13.7656 51.0938L33.6093 57.8906C33.7577 57.9375 33.9062 57.9688 34.0624 57.9688C34.2734 57.9688 34.4843 57.9219 34.6796 57.8281C35.0155 57.6641 35.2656 57.375 35.3906 57.0234L48.2109 19.5859C48.4609 18.8516 48.0702 18.0625 47.3437 17.8125L27.4999 11.0156C27.3515 10.9687 27.1952 10.9453 27.0468 10.9453Z" fill="#151B28"/>
<path d="M27.0469 17.2344C26.5078 17.2344 25.9766 17.1484 25.4609 16.9688C25.2891 16.9063 25.1406 16.7813 25.0625 16.6172C24.9844 16.4531 24.9687 16.2578 25.0312 16.0859L26.3906 12.1172C26.4922 11.8281 26.7578 11.6406 27.0547 11.6406C27.1328 11.6406 27.2031 11.6562 27.2812 11.6797L31.25 13.0391C31.4219 13.1016 31.5703 13.2266 31.6484 13.3906C31.7266 13.5547 31.7422 13.75 31.6797 13.9219C31.3478 14.8872 30.7232 15.725 29.8928 16.3187C29.0624 16.9124 28.0676 17.2325 27.0469 17.2344Z" fill="white"/>
<path d="M27.0469 12.3437L31.0156 13.7031C30.731 14.5298 30.1958 15.2471 29.4845 15.7554C28.7732 16.2637 27.9211 16.5376 27.0469 16.5391C26.5938 16.5391 26.1406 16.4688 25.6875 16.3125L27.0469 12.3437ZM27.0469 10.9453C26.4688 10.9453 25.9219 11.3125 25.7266 11.8906L24.3672 15.8594C24.25 16.2109 24.2734 16.5938 24.4375 16.9297C24.6016 17.2656 24.8906 17.5156 25.2422 17.6406C25.8281 17.8438 26.4375 17.9453 27.0547 17.9453C28.2204 17.9447 29.3567 17.58 30.305 16.902C31.2533 16.2241 31.966 15.2669 32.3438 14.1641C32.4609 13.8125 32.4375 13.4297 32.2734 13.0938C32.1091 12.7602 31.82 12.5048 31.4688 12.3828L27.5 11.0234C27.3437 10.9688 27.1953 10.9453 27.0469 10.9453Z" fill="#151B28"/>
<path d="M45.5234 23.8047C45.4453 23.8047 45.3671 23.7891 45.2968 23.7656C44.0689 23.3439 43.0585 22.4523 42.4872 21.2864C41.916 20.1205 41.8307 18.7756 42.2499 17.5469C42.3515 17.2578 42.6171 17.0703 42.914 17.0703C42.9921 17.0703 43.0624 17.0859 43.1406 17.1094L47.1093 18.4687C47.4765 18.5937 47.6718 18.9922 47.5468 19.3594L46.1874 23.3281C46.1249 23.5 45.9999 23.6484 45.8359 23.7266C45.7343 23.7813 45.6328 23.8047 45.5234 23.8047Z" fill="white"/>
<path d="M42.9142 17.7812L46.8829 19.1406L45.5236 23.1094C44.4723 22.7471 43.6074 21.9829 43.1184 20.9843C42.6293 19.9856 42.5559 18.8339 42.9142 17.7812ZM42.9142 16.3828C42.7032 16.3828 42.4923 16.4297 42.297 16.5234C41.9634 16.6878 41.708 16.9769 41.5861 17.3281C40.5861 20.2422 42.1486 23.4297 45.0626 24.4297C45.2111 24.4844 45.3673 24.5078 45.5157 24.5078C46.0939 24.5078 46.6407 24.1406 46.8361 23.5625L48.1954 19.5938C48.3126 19.2422 48.2892 18.8594 48.1251 18.5234C47.9608 18.1899 47.6717 17.9345 47.3204 17.8125L43.3673 16.4531C43.2267 16.4062 43.0704 16.3828 42.9142 16.3828Z" fill="#151B28"/>
<path d="M18.1953 51.8359C18.1172 51.8359 18.0391 51.8203 17.9687 51.7968L14 50.4375C13.8281 50.375 13.6797 50.25 13.6016 50.0859C13.5234 49.9218 13.5078 49.7265 13.5703 49.5546L14.9297 45.5859C14.9922 45.414 15.1172 45.2656 15.2812 45.1875C15.4472 45.107 15.6383 45.0958 15.8125 45.1562C17.0404 45.5779 18.0509 46.4695 18.6221 47.6354C19.1933 48.8013 19.2786 50.1462 18.8594 51.375C18.7969 51.5468 18.6719 51.6953 18.5078 51.7734C18.4062 51.8125 18.2969 51.8359 18.1953 51.8359Z" fill="white"/>
<path d="M15.5859 45.8125C17.7812 46.5625 18.9452 48.9453 18.1952 51.1406L14.2265 49.7812L15.5859 45.8125ZM15.5859 44.4141C15.3749 44.4141 15.164 44.4609 14.9687 44.5547C14.6351 44.719 14.3797 45.0081 14.2577 45.3594L12.8984 49.3281C12.6484 50.0625 13.039 50.8516 13.7656 51.1016L17.7343 52.4609C17.8827 52.5078 18.0312 52.5391 18.1874 52.5391C18.3984 52.5391 18.6093 52.4922 18.8046 52.3984C19.1405 52.2344 19.3906 51.9453 19.5156 51.5937C19.9999 50.1797 19.9062 48.6641 19.2499 47.3203C18.5937 45.9766 17.4531 44.9766 16.039 44.4922C15.8906 44.4375 15.7343 44.4141 15.5859 44.4141Z" fill="#151B28"/>
<path d="M34.0625 57.2734C33.9844 57.2734 33.9141 57.2578 33.8359 57.2344L29.8672 55.875C29.6953 55.8125 29.5469 55.6875 29.4687 55.5234C29.3906 55.3594 29.375 55.1641 29.4375 54.9922C29.7682 54.0276 30.3914 53.1902 31.2204 52.5965C32.0493 52.0027 33.0428 51.6823 34.0625 51.6797C34.6016 51.6797 35.1406 51.7656 35.6562 51.9453C35.8281 52.0078 35.9766 52.1328 36.0547 52.2969C36.1328 52.4609 36.1484 52.6562 36.0859 52.8281L34.7266 56.7969C34.6792 56.9355 34.5898 57.056 34.4708 57.1414C34.3517 57.2268 34.209 57.273 34.0625 57.2734Z" fill="white"/>
<path d="M34.0624 52.375C34.5156 52.375 34.9765 52.4453 35.4296 52.6016L34.0702 56.5703L30.1015 55.2109C30.383 54.3839 30.9164 53.6657 31.6267 53.1571C32.3371 52.6485 33.1888 52.375 34.0624 52.375ZM34.0624 50.9766C32.8968 50.9772 31.7604 51.3419 30.8121 52.0198C29.8639 52.6978 29.1511 53.655 28.7734 54.7578C28.5234 55.4922 28.914 56.2812 29.6405 56.5312L33.6093 57.8906C33.7577 57.9375 33.9062 57.9688 34.0624 57.9688C34.2734 57.9688 34.4843 57.9219 34.6796 57.8281C35.0155 57.6641 35.2656 57.375 35.3906 57.0234L36.7499 53.0547C36.9999 52.3203 36.6093 51.5312 35.8827 51.2812C35.289 51.0781 34.6796 50.9766 34.0624 50.9766Z" fill="#151B28"/>
<path d="M30.5625 46.0938C29.2813 46.0938 28.0157 45.8828 26.7891 45.4609C26.711 45.4297 26.6172 45.4063 26.5235 45.3594C24.2497 44.5232 22.2948 42.9962 20.9329 40.9926C19.5711 38.989 18.8706 36.6094 18.9297 34.1875C18.9297 34.125 18.9454 34.0547 18.961 34L21.1172 27.7031C21.1407 27.6406 21.1719 27.5859 21.211 27.5312C23.3907 24.5781 26.8907 22.8203 30.5625 22.8203C31.8438 22.8203 33.1094 23.0313 34.3282 23.4531C38.3516 24.8281 41.2969 28.2891 42.0157 32.4766C42.1485 33.2187 42.211 33.9766 42.1954 34.7266C42.1954 34.7891 42.1797 34.8516 42.1641 34.9141L40.0079 41.2109C39.9844 41.2734 39.9532 41.3281 39.9141 41.3828C37.7266 44.3281 34.2344 46.0938 30.5625 46.0938Z" fill="white"/>
<path d="M30.5546 23.4531C31.7343 23.4531 32.9374 23.6484 34.1171 24.0469C38.0468 25.3906 40.7265 28.7422 41.3828 32.5781C41.5078 33.2734 41.5703 33.9922 41.5546 34.7031L39.3984 41C38.3749 42.3805 37.043 43.5027 35.5089 44.2772C33.9748 45.0517 32.281 45.4571 30.5624 45.4609C29.3828 45.4609 28.1796 45.2656 26.9921 44.8672C26.914 44.8438 26.8359 44.8125 26.7578 44.7734C26.7499 44.7734 26.7421 44.7656 26.7421 44.7656C22.2343 43.1016 19.4531 38.7813 19.5624 34.2031L21.7187 27.9063C23.7812 25.1094 27.0859 23.4531 30.5546 23.4531ZM30.5546 22.1797C26.6796 22.1797 22.9921 24.0391 20.6874 27.1484C20.6093 27.25 20.5468 27.3672 20.5078 27.4922L18.3515 33.7891C18.3124 33.9141 18.289 34.0391 18.2812 34.1719C18.2214 36.7222 18.9594 39.2276 20.3922 41.3382C21.825 43.4489 23.8811 45.0595 26.2734 45.9453L26.5703 46.0625C27.8593 46.5078 29.1953 46.7266 30.5468 46.7266C34.4218 46.7266 38.1015 44.8672 40.4062 41.7578C40.4843 41.6563 40.5468 41.5391 40.5859 41.4141L42.7421 35.1172C42.7812 34.9922 42.8046 34.8672 42.8124 34.7344C42.8359 33.9453 42.7656 33.1406 42.6249 32.3516C42.2518 30.1845 41.3018 28.158 39.8749 26.4849C38.4479 24.8119 36.5966 23.5541 34.5156 22.8438C33.2421 22.4063 31.9062 22.1797 30.5546 22.1797Z" fill="#151B28"/>
<path d="M41.5547 34.7032L39.3985 41C36.6251 44.75 31.6485 46.4532 26.9922 44.8594C26.9141 44.836 26.836 44.8047 26.7579 44.7657C26.7501 44.7657 26.7422 44.7579 26.7422 44.7579C23.3751 42.2813 21.8282 37.8125 23.2579 33.6485C25.0157 28.5157 30.6016 25.7813 35.7266 27.5313C36.9581 27.9508 38.0934 28.6118 39.066 29.4758C40.0386 30.3397 40.8289 31.3892 41.3907 32.5625C41.5154 33.269 41.5704 33.986 41.5547 34.7032Z" fill="#2AEFC8"/>
<path d="M27.6641 30.8203C26.8047 31.2422 26.2578 31.6563 25.9219 32.6406C25.5469 33.7422 26.0234 34.7109 27.0547 35.0625C29.7188 35.9766 30.625 30.7812 34.4297 32.0859C36.0937 32.6562 36.8594 34.0937 36.5156 35.8125L38.2578 36.4063L37.9297 37.3594L36.2031 36.7656C35.7031 37.8594 34.7578 38.7734 33.8359 39.2656L33.1641 38.3516C34.0547 37.8516 34.8906 37.1406 35.2656 36.0391C35.7266 34.6875 35.2266 33.75 34.0859 33.3594C31.1094 32.3359 30.125 37.5078 26.6719 36.3203C25.1328 35.7969 24.375 34.375 24.6641 32.8125L22.9219 32.2187L23.25 31.2656L24.9766 31.8594C25.4688 30.7813 26.25 30.2422 27.1172 29.8594L27.6641 30.8203Z" fill="black"/>
</svg>
